<svg fill="none" height="22" viewBox="0 0 22 22" width="22" xmlns="http://www.w3.org/2000/svg" xmlns:xlink="http://www.w3.org/1999/xlink"><linearGradient id="a" gradientUnits="userSpaceOnUse" x1="11" x2="11" y1="1" y2="25"><stop offset="0" stop-color="#bc9cff"/><stop offset="1" stop-color="#8ba4f9"/></linearGradient><path d="m19.25.5c.625 0 1.1562.21875 1.5938.65625.4374.4375.6562.96875.6562 1.59375v16.5c0 .625-.2188 1.1562-.6562 1.5938-.4376.4374-.9688.6562-1.5938.6562h-6.4219v-7.125h2.7188l.5156-3.375h-3.2344v-2.20312c0-1.1875.625-1.78126 1.875-1.78126h1.4531v-2.85937c-.875-.15625-1.7343-.23437-2.5781-.23437-.9062 0-1.6875.17187-2.3437.51562-.625.34375-1.125.85937-1.50002 1.54688-.375.6875-.5625 1.5-.5625 2.4375v2.57812h-2.95313v3.375h2.95313v7.125h-6.42188c-.625 0-1.15625-.2188-1.59375-.6562-.4375-.4376-.65625-.9688-.65625-1.5938v-16.5c0-.625.21875-1.15625.65625-1.59375s.96875-.65625 1.59375-.65625z" fill="url(#a)"/></svg>