<svg fill="none" height="21" viewBox="0 0 24 21" width="24" xmlns="http://www.w3.org/2000/svg" xmlns:xlink="http://www.w3.org/1999/xlink"><linearGradient id="a" gradientUnits="userSpaceOnUse" x1="12" x2="12" y1="-1.57568" y2="22.2076"><stop offset="0" stop-color="#bc9cff"/><stop offset="1" stop-color="#8ba4f9"/></linearGradient><path d="m21.5156 5.54932c.0313.125.0469.32812.0469.60937 0 2.25-.5469 4.42191-1.6406 6.51561-1.125 2.2188-2.7031 3.9844-4.7344 5.2969-2.2187 1.4687-4.7656 2.2031-7.64062 2.2031-2.75 0-5.26563-.7344-7.54688-2.2031.34375.0312.734375.0469 1.17188.0469 2.28124 0 4.32812-.7032 6.14062-2.1094-1.09375 0-2.0625-.3125-2.90625-.9375-.8125-.6563-1.375-1.4688-1.6875-2.4375.3125.0312.60937.0469.89063.0469.4375 0 .875-.0469 1.3125-.1407-1.125-.25-2.0625-.8281-2.8125-1.7343-.75-.90628-1.125005-1.93753-1.125005-3.09378v-.09375c.687505.40625 1.421875.625 2.203125.65625-.65625-.46875-1.1875-1.0625-1.59375-1.78125s-.609375-1.5-.609375-2.34375c0-.875.234375-1.70313.703125-2.48438 1.21875 1.53125 2.70312 2.75 4.45312 3.65625 1.78126.90625 3.67188 1.40625 5.67188 1.5-.0625-.375-.0937-.75-.0937-1.125 0-.875.2187-1.6875.6562-2.4375.4375-.78125 1.0312-1.39062 1.7812-1.82812.75-.437504 1.5626-.656254 2.4376-.656254.7187 0 1.375.140625 1.9687.421874.625.28125 1.1719.65625 1.6406 1.125 1.125-.21875 2.1719-.60937 3.1407-1.17187-.375 1.15625-1.0938 2.0625-2.1563 2.71875.9375-.125 1.875-.39063 2.8125-.79688-.6875 1-1.5156 1.85938-2.4844 2.57813z" fill="url(#a)"/></svg>